<svg width="188" height="44" viewBox="0 0 188 44" fill="none" xmlns="http://www.w3.org/2000/svg">
<g filter="url(#filter0_d_999_193)">
<rect x="2.5" y="1.5" width="183" height="39" rx="7.5" stroke="#F6821F" shape-rendering="crispEdges"/>
<path d="M39.5006 20.3054C39.4231 20.3054 39.3466 20.3082 39.2702 20.3107C39.2578 20.3114 39.2456 20.3142 39.2343 20.3192C39.214 20.326 39.1958 20.3379 39.1813 20.3535C39.1668 20.3692 39.1564 20.3883 39.1511 20.409L38.8235 21.5535C38.6823 22.0456 38.7347 22.5001 38.9722 22.8337C39.1899 23.1423 39.552 23.3233 39.9916 23.3445L41.7688 23.4523C41.8217 23.4551 41.8675 23.4804 41.8953 23.5224C41.9099 23.5447 41.9191 23.5702 41.9222 23.5967C41.9253 23.6232 41.9222 23.6501 41.9133 23.6752C41.8989 23.7161 41.8732 23.752 41.839 23.7786C41.8048 23.8052 41.7637 23.8214 41.7206 23.8253L39.874 23.9331C38.8707 23.9796 37.7914 24.7983 37.4127 25.7966L37.2795 26.1489C37.2738 26.1635 37.2716 26.1792 37.2732 26.1949C37.2748 26.2105 37.2801 26.2255 37.2886 26.2386C37.2972 26.2518 37.3087 26.2627 37.3223 26.2705C37.3359 26.2783 37.3512 26.2827 37.3669 26.2834H43.7267C43.7637 26.2836 43.7997 26.2716 43.8292 26.2494C43.8588 26.2271 43.8802 26.1957 43.8902 26.1602C44.0031 25.7541 44.06 25.3346 44.0593 24.9131C44.0593 22.3697 42.02 20.3082 39.5034 20.3082" fill="#FC8E3B"/>
<path d="M36.7247 26.1358L36.8424 25.7218C36.984 25.2297 36.9315 24.7753 36.6944 24.4417C36.476 24.1331 36.1143 23.952 35.6743 23.9309L27.3379 23.8231C27.3119 23.8226 27.2865 23.816 27.2636 23.8039C27.2407 23.7917 27.221 23.7742 27.2061 23.753C27.1915 23.7307 27.1822 23.7052 27.179 23.6787C27.1759 23.6522 27.1789 23.6253 27.1878 23.6001C27.2022 23.559 27.2283 23.5229 27.2628 23.4963C27.2973 23.4696 27.3388 23.4536 27.3822 23.4501L35.7965 23.3423C36.7955 23.2961 37.8749 22.4771 38.2536 21.4787L38.7334 20.2106C38.7529 20.1568 38.7578 20.0988 38.7475 20.0425C38.2007 17.5689 36.0139 15.7163 33.3993 15.7163C30.9891 15.7163 28.9442 17.2881 28.2104 19.4733C27.7164 19.0976 27.0977 18.9245 26.4804 18.9893C25.325 19.1055 24.395 20.0468 24.2802 21.2149C24.2504 21.5066 24.2719 21.8013 24.3436 22.0857C22.4554 22.1421 20.9407 23.7054 20.9407 25.6267C20.9407 25.8004 20.953 25.9716 20.978 26.1386C20.983 26.1777 21.0021 26.2137 21.0317 26.2398C21.0614 26.2659 21.0995 26.2802 21.139 26.2802H36.5345C36.5779 26.2795 36.6198 26.2647 36.6541 26.2382C36.6884 26.2117 36.7132 26.1747 36.7247 26.1329" fill="#FC8E3B"/>
<path d="M55.8434 25H53.0181V16.2727H55.9329C56.788 16.2727 57.5224 16.4474 58.136 16.7969C58.7497 17.1435 59.2198 17.642 59.5465 18.2926C59.8761 18.9403 60.0409 19.7173 60.0409 20.6236C60.0409 21.5327 59.8747 22.3139 59.5423 22.9673C59.2127 23.6207 58.7355 24.1236 58.1105 24.4759C57.4855 24.8253 56.7298 25 55.8434 25ZM54.3349 23.8494H55.771C56.4357 23.8494 56.9883 23.7244 57.4286 23.4744C57.869 23.2216 58.1985 22.8565 58.4173 22.3793C58.636 21.8991 58.7454 21.3139 58.7454 20.6236C58.7454 19.9389 58.636 19.358 58.4173 18.8807C58.2014 18.4034 57.8789 18.0412 57.45 17.794C57.021 17.5469 56.4883 17.4233 55.8519 17.4233H54.3349V23.8494ZM64.277 25.1321C63.6322 25.1321 63.0768 24.9943 62.6108 24.7188C62.1478 24.4403 61.7898 24.0497 61.537 23.5469C61.287 23.0412 61.162 22.4489 61.162 21.7699C61.162 21.0994 61.287 20.5085 61.537 19.9972C61.7898 19.4858 62.1421 19.0866 62.5938 18.7997C63.0483 18.5128 63.5796 18.3693 64.1876 18.3693C64.5569 18.3693 64.9148 18.4304 65.2614 18.5526C65.608 18.6747 65.9191 18.8665 66.1947 19.1278C66.4702 19.3892 66.6876 19.7287 66.8466 20.1463C67.0057 20.5611 67.0853 21.0653 67.0853 21.6591V22.1108H61.8822V21.1562H65.8367C65.8367 20.821 65.7685 20.5241 65.6322 20.2656C65.4958 20.0043 65.304 19.7983 65.0569 19.6477C64.8126 19.4972 64.5256 19.4219 64.1961 19.4219C63.8381 19.4219 63.5256 19.5099 63.2586 19.6861C62.9944 19.8594 62.7898 20.0866 62.6449 20.3679C62.5029 20.6463 62.4319 20.9489 62.4319 21.2756V22.0213C62.4319 22.4588 62.5086 22.831 62.662 23.1378C62.8182 23.4446 63.0356 23.679 63.314 23.8409C63.5924 24 63.9177 24.0795 64.2898 24.0795C64.5313 24.0795 64.7515 24.0455 64.9503 23.9773C65.1492 23.9062 65.3211 23.8011 65.466 23.6619C65.6108 23.5227 65.7216 23.3509 65.7983 23.1463L67.0043 23.3636C66.9077 23.7187 66.7344 24.0298 66.4844 24.2969C66.2373 24.5611 65.9262 24.767 65.5512 24.9148C65.179 25.0597 64.7543 25.1321 64.277 25.1321ZM68.379 27.4545V18.4545H69.6233V19.5156H69.7298C69.8037 19.3793 69.9102 19.2216 70.0494 19.0426C70.1886 18.8636 70.3818 18.7074 70.629 18.5739C70.8761 18.4375 71.2028 18.3693 71.6091 18.3693C72.1375 18.3693 72.6091 18.5028 73.0239 18.7699C73.4386 19.0369 73.7639 19.4219 73.9997 19.9247C74.2384 20.4276 74.3577 21.0327 74.3577 21.7401C74.3577 22.4474 74.2398 23.054 74.004 23.5597C73.7682 24.0625 73.4443 24.4503 73.0324 24.723C72.6205 24.9929 72.1503 25.1278 71.6219 25.1278C71.2242 25.1278 70.8989 25.0611 70.646 24.9276C70.396 24.794 70.2 24.6378 70.058 24.4588C69.9159 24.2798 69.8065 24.1207 69.7298 23.9815H69.6531V27.4545H68.379ZM69.6276 21.7273C69.6276 22.1875 69.6943 22.5909 69.8278 22.9375C69.9614 23.2841 70.1546 23.5554 70.4074 23.7514C70.6602 23.9446 70.9699 24.0412 71.3364 24.0412C71.7171 24.0412 72.0352 23.9403 72.2909 23.7386C72.5466 23.5341 72.7398 23.2571 72.8705 22.9077C73.004 22.5582 73.0707 22.1648 73.0707 21.7273C73.0707 21.2955 73.0054 20.9077 72.8747 20.5639C72.7469 20.2202 72.5537 19.9489 72.2952 19.75C72.0395 19.5511 71.7199 19.4517 71.3364 19.4517C70.9671 19.4517 70.6546 19.5469 70.3989 19.7372C70.146 19.9276 69.9543 20.1932 69.8236 20.5341C69.6929 20.875 69.6276 21.2727 69.6276 21.7273ZM76.9394 16.2727V25H75.6652V16.2727H76.9394ZM81.2906 25.1321C80.677 25.1321 80.1415 24.9915 79.6841 24.7102C79.2267 24.429 78.8716 24.0355 78.6187 23.5298C78.3659 23.0241 78.2395 22.4332 78.2395 21.7571C78.2395 21.0781 78.3659 20.4844 78.6187 19.9759C78.8716 19.4673 79.2267 19.0724 79.6841 18.7912C80.1415 18.5099 80.677 18.3693 81.2906 18.3693C81.9043 18.3693 82.4398 18.5099 82.8972 18.7912C83.3545 19.0724 83.7097 19.4673 83.9625 19.9759C84.2153 20.4844 84.3418 21.0781 84.3418 21.7571C84.3418 22.4332 84.2153 23.0241 83.9625 23.5298C83.7097 24.0355 83.3545 24.429 82.8972 24.7102C82.4398 24.9915 81.9043 25.1321 81.2906 25.1321ZM81.2949 24.0625C81.6926 24.0625 82.0222 23.9574 82.2835 23.7472C82.5449 23.5369 82.7381 23.2571 82.8631 22.9077C82.9909 22.5582 83.0548 22.1733 83.0548 21.7528C83.0548 21.3352 82.9909 20.9517 82.8631 20.6023C82.7381 20.25 82.5449 19.9673 82.2835 19.7543C82.0222 19.5412 81.6926 19.4347 81.2949 19.4347C80.8943 19.4347 80.5619 19.5412 80.2977 19.7543C80.0364 19.9673 79.8418 20.25 79.7139 20.6023C79.5889 20.9517 79.5264 21.3352 79.5264 21.7528C79.5264 22.1733 79.5889 22.5582 79.7139 22.9077C79.8418 23.2571 80.0364 23.5369 80.2977 23.7472C80.5619 23.9574 80.8943 24.0625 81.2949 24.0625ZM86.2267 27.4545C86.0364 27.4545 85.8631 27.4389 85.7068 27.4077C85.5506 27.3793 85.4341 27.348 85.3574 27.3139L85.6642 26.2699C85.8972 26.3324 86.1046 26.3594 86.2864 26.3509C86.4682 26.3423 86.6287 26.2741 86.7679 26.1463C86.91 26.0185 87.035 25.8097 87.1429 25.5199L87.3006 25.0852L84.9057 18.4545H86.2693L87.927 23.5341H87.9952L89.6529 18.4545H91.0208L88.3233 25.8736C88.1983 26.2145 88.0392 26.5028 87.846 26.7386C87.6529 26.9773 87.4228 27.1563 87.1557 27.2756C86.8887 27.3949 86.579 27.4545 86.2267 27.4545ZM98.2094 18.4545V19.4773H94.6341V18.4545H98.2094ZM95.5929 16.8864H96.8671V23.0781C96.8671 23.3253 96.904 23.5114 96.9778 23.6364C97.0517 23.7585 97.1469 23.8423 97.2634 23.8878C97.3827 23.9304 97.5119 23.9517 97.6511 23.9517C97.7534 23.9517 97.8429 23.9446 97.9196 23.9304C97.9963 23.9162 98.056 23.9048 98.0986 23.8963L98.3287 24.9489C98.2548 24.9773 98.1497 25.0057 98.0134 25.0341C97.877 25.0653 97.7065 25.0824 97.502 25.0852C97.1668 25.0909 96.8543 25.0312 96.5645 24.9062C96.2747 24.7812 96.0403 24.5881 95.8614 24.3267C95.6824 24.0653 95.5929 23.7372 95.5929 23.3423V16.8864ZM102.186 25.1321C101.572 25.1321 101.036 24.9915 100.579 24.7102C100.122 24.429 99.7666 24.0355 99.5137 23.5298C99.2609 23.0241 99.1345 22.4332 99.1345 21.7571C99.1345 21.0781 99.2609 20.4844 99.5137 19.9759C99.7666 19.4673 100.122 19.0724 100.579 18.7912C101.036 18.5099 101.572 18.3693 102.186 18.3693C102.799 18.3693 103.335 18.5099 103.792 18.7912C104.25 19.0724 104.605 19.4673 104.857 19.9759C105.11 20.4844 105.237 21.0781 105.237 21.7571C105.237 22.4332 105.11 23.0241 104.857 23.5298C104.605 24.0355 104.25 24.429 103.792 24.7102C103.335 24.9915 102.799 25.1321 102.186 25.1321ZM102.19 24.0625C102.588 24.0625 102.917 23.9574 103.179 23.7472C103.44 23.5369 103.633 23.2571 103.758 22.9077C103.886 22.5582 103.95 22.1733 103.95 21.7528C103.95 21.3352 103.886 20.9517 103.758 20.6023C103.633 20.25 103.44 19.9673 103.179 19.7543C102.917 19.5412 102.588 19.4347 102.19 19.4347C101.789 19.4347 101.457 19.5412 101.193 19.7543C100.931 19.9673 100.737 20.25 100.609 20.6023C100.484 20.9517 100.421 21.3352 100.421 21.7528C100.421 22.1733 100.484 22.5582 100.609 22.9077C100.737 23.2571 100.931 23.5369 101.193 23.7472C101.457 23.9574 101.789 24.0625 102.19 24.0625ZM116.946 19.1108H115.616C115.565 18.8267 115.47 18.5767 115.331 18.3608C115.191 18.1449 115.021 17.9616 114.819 17.8111C114.617 17.6605 114.392 17.5469 114.142 17.4702C113.894 17.3935 113.632 17.3551 113.353 17.3551C112.85 17.3551 112.4 17.4815 112.002 17.7344C111.608 17.9872 111.295 18.358 111.065 18.8466C110.838 19.3352 110.724 19.9318 110.724 20.6364C110.724 21.3466 110.838 21.946 111.065 22.4347C111.295 22.9233 111.609 23.2926 112.007 23.5426C112.404 23.7926 112.852 23.9176 113.349 23.9176C113.625 23.9176 113.886 23.8807 114.133 23.8068C114.383 23.7301 114.609 23.6179 114.811 23.4702C115.012 23.3224 115.183 23.142 115.322 22.929C115.464 22.7131 115.562 22.4659 115.616 22.1875L116.946 22.1918C116.875 22.6207 116.737 23.0156 116.532 23.3764C116.331 23.7344 116.071 24.044 115.752 24.3054C115.437 24.5639 115.076 24.7642 114.67 24.9062C114.264 25.0483 113.821 25.1193 113.341 25.1193C112.585 25.1193 111.912 24.9403 111.321 24.5824C110.73 24.2216 110.264 23.706 109.923 23.0355C109.585 22.3651 109.416 21.5653 109.416 20.6364C109.416 19.7045 109.586 18.9048 109.927 18.2372C110.268 17.5668 110.734 17.0526 111.325 16.6946C111.916 16.3338 112.588 16.1534 113.341 16.1534C113.804 16.1534 114.235 16.2202 114.636 16.3537C115.039 16.4844 115.402 16.6776 115.723 16.9332C116.044 17.1861 116.309 17.4957 116.519 17.8622C116.73 18.2259 116.872 18.642 116.946 19.1108ZM119.573 16.2727V25H118.299V16.2727H119.573ZM123.924 25.1321C123.311 25.1321 122.775 24.9915 122.318 24.7102C121.86 24.429 121.505 24.0355 121.252 23.5298C121 23.0241 120.873 22.4332 120.873 21.7571C120.873 21.0781 121 20.4844 121.252 19.9759C121.505 19.4673 121.86 19.0724 122.318 18.7912C122.775 18.5099 123.311 18.3693 123.924 18.3693C124.538 18.3693 125.074 18.5099 125.531 18.7912C125.988 19.0724 126.343 19.4673 126.596 19.9759C126.849 20.4844 126.976 21.0781 126.976 21.7571C126.976 22.4332 126.849 23.0241 126.596 23.5298C126.343 24.0355 125.988 24.429 125.531 24.7102C125.074 24.9915 124.538 25.1321 123.924 25.1321ZM123.929 24.0625C124.326 24.0625 124.656 23.9574 124.917 23.7472C125.179 23.5369 125.372 23.2571 125.497 22.9077C125.625 22.5582 125.689 22.1733 125.689 21.7528C125.689 21.3352 125.625 20.9517 125.497 20.6023C125.372 20.25 125.179 19.9673 124.917 19.7543C124.656 19.5412 124.326 19.4347 123.929 19.4347C123.528 19.4347 123.196 19.5412 122.931 19.7543C122.67 19.9673 122.476 20.25 122.348 20.6023C122.223 20.9517 122.16 21.3352 122.16 21.7528C122.16 22.1733 122.223 22.5582 122.348 22.9077C122.476 23.2571 122.67 23.5369 122.931 23.7472C123.196 23.9574 123.528 24.0625 123.929 24.0625ZM132.424 22.2855V18.4545H133.702V25H132.45V23.8665H132.381C132.231 24.2159 131.989 24.5071 131.657 24.7401C131.327 24.9702 130.917 25.0852 130.425 25.0852C130.005 25.0852 129.633 24.9929 129.309 24.8082C128.988 24.6207 128.735 24.3438 128.55 23.9773C128.369 23.6108 128.278 23.1577 128.278 22.6179V18.4545H129.552V22.4645C129.552 22.9105 129.675 23.2656 129.923 23.5298C130.17 23.794 130.491 23.9261 130.886 23.9261C131.124 23.9261 131.362 23.8665 131.597 23.7472C131.836 23.6278 132.033 23.4474 132.19 23.206C132.349 22.9645 132.427 22.6577 132.424 22.2855ZM137.745 25.1278C137.216 25.1278 136.745 24.9929 136.33 24.723C135.918 24.4503 135.594 24.0625 135.358 23.5597C135.125 23.054 135.009 22.4474 135.009 21.7401C135.009 21.0327 135.127 20.4276 135.363 19.9247C135.601 19.4219 135.928 19.0369 136.343 18.7699C136.758 18.5028 137.228 18.3693 137.753 18.3693C138.16 18.3693 138.486 18.4375 138.733 18.5739C138.983 18.7074 139.177 18.8636 139.313 19.0426C139.452 19.2216 139.56 19.3793 139.637 19.5156H139.713V16.2727H140.988V25H139.743V23.9815H139.637C139.56 24.1207 139.449 24.2798 139.304 24.4588C139.162 24.6378 138.966 24.794 138.716 24.9276C138.466 25.0611 138.142 25.1278 137.745 25.1278ZM138.026 24.0412C138.392 24.0412 138.702 23.9446 138.955 23.7514C139.211 23.5554 139.404 23.2841 139.535 22.9375C139.668 22.5909 139.735 22.1875 139.735 21.7273C139.735 21.2727 139.669 20.875 139.539 20.5341C139.408 20.1932 139.216 19.9276 138.963 19.7372C138.711 19.5469 138.398 19.4517 138.026 19.4517C137.642 19.4517 137.323 19.5511 137.067 19.75C136.811 19.9489 136.618 20.2202 136.488 20.5639C136.36 20.9077 136.296 21.2955 136.296 21.7273C136.296 22.1648 136.361 22.5582 136.492 22.9077C136.623 23.2571 136.816 23.5341 137.071 23.7386C137.33 23.9403 137.648 24.0412 138.026 24.0412ZM145.801 18.4545V19.4773H142.102V18.4545H145.801ZM143.117 25V17.696C143.117 17.2869 143.206 16.9474 143.385 16.6776C143.564 16.4048 143.801 16.2017 144.097 16.0682C144.392 15.9318 144.713 15.8636 145.06 15.8636C145.315 15.8636 145.534 15.8849 145.716 15.9276C145.898 15.9673 146.033 16.0043 146.121 16.0384L145.823 17.0696C145.763 17.0526 145.686 17.0327 145.592 17.0099C145.499 16.9844 145.385 16.9716 145.252 16.9716C144.942 16.9716 144.72 17.0483 144.587 17.2017C144.456 17.3551 144.391 17.5767 144.391 17.8665V25H143.117ZM148.27 16.2727V25H146.996V16.2727H148.27ZM151.769 25.1449C151.354 25.1449 150.979 25.0682 150.644 24.9148C150.309 24.7585 150.043 24.5327 149.847 24.2372C149.654 23.9418 149.557 23.5795 149.557 23.1506C149.557 22.7812 149.628 22.4773 149.77 22.2386C149.912 22 150.104 21.8111 150.346 21.6719C150.587 21.5327 150.857 21.4276 151.155 21.3565C151.454 21.2855 151.758 21.2315 152.067 21.1946C152.459 21.1491 152.777 21.1122 153.022 21.0838C153.266 21.0526 153.444 21.0028 153.554 20.9347C153.665 20.8665 153.721 20.7557 153.721 20.6023V20.5724C153.721 20.2003 153.616 19.9119 153.405 19.7074C153.198 19.5028 152.888 19.4006 152.476 19.4006C152.047 19.4006 151.709 19.4957 151.462 19.6861C151.218 19.8736 151.049 20.0824 150.955 20.3125L149.758 20.0398C149.9 19.642 150.107 19.321 150.38 19.0767C150.655 18.8295 150.972 18.6506 151.33 18.5398C151.688 18.4261 152.064 18.3693 152.459 18.3693C152.721 18.3693 152.998 18.4006 153.29 18.4631C153.586 18.5227 153.861 18.6335 154.117 18.7955C154.376 18.9574 154.587 19.1889 154.752 19.4901C154.917 19.7884 154.999 20.1761 154.999 20.6534V25H153.755V24.1051H153.704C153.621 24.2699 153.498 24.4318 153.333 24.5909C153.168 24.75 152.956 24.8821 152.698 24.9872C152.439 25.0923 152.13 25.1449 151.769 25.1449ZM152.046 24.1222C152.398 24.1222 152.699 24.0526 152.949 23.9134C153.202 23.7741 153.394 23.5923 153.525 23.3679C153.658 23.1406 153.725 22.8977 153.725 22.6392V21.7955C153.679 21.8409 153.591 21.8835 153.461 21.9233C153.333 21.9602 153.187 21.9929 153.022 22.0213C152.857 22.0469 152.697 22.071 152.54 22.0938C152.384 22.1136 152.253 22.1307 152.148 22.1449C151.901 22.1761 151.675 22.2287 151.471 22.3026C151.269 22.3764 151.107 22.483 150.985 22.6222C150.866 22.7585 150.806 22.9403 150.806 23.1676C150.806 23.483 150.922 23.7216 151.155 23.8835C151.388 24.0426 151.685 24.1222 152.046 24.1222ZM156.576 25V18.4545H157.808V19.4943H157.876C157.995 19.142 158.205 18.8651 158.507 18.6634C158.811 18.4588 159.154 18.3565 159.538 18.3565C159.617 18.3565 159.711 18.3594 159.819 18.3651C159.93 18.3707 160.017 18.3778 160.079 18.3864V19.6051C160.028 19.5909 159.937 19.5753 159.806 19.5582C159.676 19.5384 159.545 19.5284 159.414 19.5284C159.113 19.5284 158.845 19.5923 158.609 19.7202C158.376 19.8452 158.191 20.0199 158.055 20.2443C157.918 20.4659 157.85 20.7187 157.85 21.0028V25H156.576ZM163.648 25.1321C163.003 25.1321 162.448 24.9943 161.982 24.7188C161.519 24.4403 161.161 24.0497 160.908 23.5469C160.658 23.0412 160.533 22.4489 160.533 21.7699C160.533 21.0994 160.658 20.5085 160.908 19.9972C161.161 19.4858 161.513 19.0866 161.965 18.7997C162.42 18.5128 162.951 18.3693 163.559 18.3693C163.928 18.3693 164.286 18.4304 164.633 18.5526C164.979 18.6747 165.29 18.8665 165.566 19.1278C165.841 19.3892 166.059 19.7287 166.218 20.1463C166.377 20.5611 166.457 21.0653 166.457 21.6591V22.1108H161.253V21.1562H165.208C165.208 20.821 165.14 20.5241 165.003 20.2656C164.867 20.0043 164.675 19.7983 164.428 19.6477C164.184 19.4972 163.897 19.4219 163.567 19.4219C163.209 19.4219 162.897 19.5099 162.63 19.6861C162.366 19.8594 162.161 20.0866 162.016 20.3679C161.874 20.6463 161.803 20.9489 161.803 21.2756V22.0213C161.803 22.4588 161.88 22.831 162.033 23.1378C162.189 23.4446 162.407 23.679 162.685 23.8409C162.964 24 163.289 24.0795 163.661 24.0795C163.903 24.0795 164.123 24.0455 164.322 23.9773C164.52 23.9062 164.692 23.8011 164.837 23.6619C164.982 23.5227 165.093 23.3509 165.17 23.1463L166.376 23.3636C166.279 23.7187 166.106 24.0298 165.856 24.2969C165.609 24.5611 165.297 24.767 164.922 24.9148C164.55 25.0597 164.126 25.1321 163.648 25.1321Z" fill="#F6821F"/>
</g>
<defs>
<filter id="filter0_d_999_193" x="0" y="0" width="188" height="44" filterUnits="userSpaceOnUse" color-interpolation-filters="sRGB">
<feFlood flood-opacity="0" result="BackgroundImageFix"/>
<feColorMatrix in="SourceAlpha" type="matrix" values="0 0 0 0 0 0 0 0 0 0 0 0 0 0 0 0 0 0 127 0" result="hardAlpha"/>
<feOffset dy="1"/>
<feGaussianBlur stdDeviation="1"/>
<feComposite in2="hardAlpha" operator="out"/>
<feColorMatrix type="matrix" values="0 0 0 0 0 0 0 0 0 0 0 0 0 0 0 0 0 0 0.05 0"/>
<feBlend mode="normal" in2="BackgroundImageFix" result="effect1_dropShadow_999_193"/>
<feBlend mode="normal" in="SourceGraphic" in2="effect1_dropShadow_999_193" result="shape"/>
</filter>
</defs>
</svg>
